<?xml version="1.0" standalone="no"?>
<!DOCTYPE svg PUBLIC "-//W3C//DTD SVG 20010904//EN"
 "http://www.w3.org/TR/2001/REC-SVG-20010904/DTD/svg10.dtd">
<svg version="1.0" xmlns="http://www.w3.org/2000/svg"
 width="300.000000pt" height="300.000000pt" viewBox="0 0 300.000000 300.000000"
 preserveAspectRatio="xMidYMid meet">
<metadata>
Created by potrace 1.11, written by Peter Selinger 2001-2013
</metadata>
<g transform="translate(0.000000,300.000000) scale(0.100000,-0.100000)"
fill="#000000" stroke="none">
<path d="M0 1499 l0 -1500 26 3 c24 3 38 30 164 303 75 165 383 836 684 1491
300 655 546 1194 546 1197 0 4 -319 7 -710 7 l-710 0 0 -1501z"/>
<path d="M1564 2982 c3 -9 311 -683 685 -1497 l679 -1480 36 -3 36 -3 0 1500
0 1501 -721 0 c-683 0 -720 -1 -715 -18z"/>
<path d="M1168 1923 c-175 -383 -316 -698 -314 -700 1 -2 289 -2 638 -1 l636
3 -314 685 c-172 377 -316 691 -321 698 -5 7 -124 -244 -325 -685z"/>
<path d="M751 1008 c-5 -13 -110 -245 -234 -515 l-225 -493 1198 0 1198 0
-127 277 c-70 153 -176 385 -236 516 l-108 237 -729 0 -728 0 -9 -22z"/>
</g>
</svg>
